<?xml version="1.0" encoding="utf-8"?>
<!-- Generator: Adobe Illustrator 16.0.0, SVG Export Plug-In . SVG Version: 6.00 Build 0)  -->
<!DOCTYPE svg PUBLIC "-//W3C//DTD SVG 1.1//EN" "http://www.w3.org/Graphics/SVG/1.1/DTD/svg11.dtd">
<svg version="1.1" id="Capa_1" xmlns="http://www.w3.org/2000/svg" xmlns:xlink="http://www.w3.org/1999/xlink" x="0px" y="0px"
	 width="430.117px" height="430.117px" viewBox="0 0 430.117 430.117" enable-background="new 0 0 430.117 430.117"
	 xml:space="preserve">
<g>
	<path d="M227.117,16.992c-10.971-7.262-25.279-7.098-36.095,0.439L29.277,130.086c-8.623,6.019-13.763,15.854-13.763,26.378
		v121.374c0,10.796,5.409,20.859,14.421,26.81l164.395,108.678c10.746,7.127,24.704,7.127,35.449,0l167.645-110.762
		c9.012-5.949,14.435-16.016,14.435-26.811V156.488c0-10.782-5.423-20.849-14.411-26.798L227.117,16.992z M352.361,148.48
		l-61.98,41.605l-58.093-42.264l-0.376-83.12L352.361,148.48z M189.868,64.778v81.349l-59.546,41.647l-59.397-39.833L189.868,64.778
		z M54.638,188.031l38.447,25.765l-38.447,26.886V188.031z M190.885,361.459L70.95,281.024l59.912-41.873l60.023,40.267V361.459z
		 M168.108,213.118l38.831-27.157l45.23,29.728l-40.091,26.926L168.108,213.118z M233.241,361.459v-82.066l57.365-38.458
		l61.755,40.618L233.241,361.459z M369.482,242.062l-40.719-26.748L369.482,188V242.062z"/>
</g>

</svg>
