<?xml version="1.0" encoding="utf-8"?>
<!-- Generator: Adobe Illustrator 16.0.0, SVG Export Plug-In . SVG Version: 6.00 Build 0)  -->
<!DOCTYPE svg PUBLIC "-//W3C//DTD SVG 1.1//EN" "http://www.w3.org/Graphics/SVG/1.1/DTD/svg11.dtd">
<svg version="1.1" id="Capa_1" xmlns="http://www.w3.org/2000/svg" xmlns:xlink="http://www.w3.org/1999/xlink" x="0px" y="0px"
	 width="547.131px" height="588.882px" viewBox="0 0 547.131 588.882" enable-background="new 0 0 547.131 588.882"
	 xml:space="preserve">

<path id="cannes" fill="#c69048" d="M287.743,94.248c4.645,6.459,0.404,27.049,5.653,26.443
	c5.047-0.605,22.406-34.315,16.753-46.023c-5.854-11.708-46.83-25.232-53.895-25.636c-27.857-1.615-35.93,20.589-39.16,38.353
	c-1.413,8.074-27.857,65.805-26.646,63.988l54.704-61.97C254.438,80.118,280.881,84.76,287.743,94.248L287.743,94.248z
	 M20.687,554.886c-2.018,5.047-8.881-3.026-6.863-8.68c0.605-1.615,8.882-19.983,27.251-16.148
	C46.525,531.269,27.349,538.535,20.687,554.886L20.687,554.886z M310.149,281.168c12.516-7.268,48.85-64.393,50.264-61.365
	c1.211,3.028,3.229,18.773-0.606,29.875C354.56,264.212,310.149,281.168,310.149,281.168L310.149,281.168z M382.212,156.218
	c-1.211-2.826,32.098,59.952,25.436,87.606c-10.498,44.005-49.859,74.282-49.859,74.282s18.773-35.93,21.6-42.389
	C382.212,269.258,400.985,203.856,382.212,156.218L382.212,156.218z M475.673,192.552c19.781,33.913-7.469,72.467-13.322,77.917
	c-4.845,4.643-14.735,9.891-21.397,13.323c11.911-10.901,22.811-24.627,26.04-40.776c3.028-16.351-2.019-32.7-10.496-50.868
	c-1.615-3.432-31.692-47.84-34.316-50.262C426.824,142.491,465.579,169.944,475.673,192.552L475.673,192.552z M488.188,272.488
	c24.829-24.829,28.664-51.07,29.875-61.971c4.645,23.617-8.68,57.328-19.579,72.871c-9.287,0.404-18.167,1.615-26.444,3.028
	C478.297,282.783,482.335,278.342,488.188,272.488L488.188,272.488z M377.772,434.58c-36.537,46.83-98.103,44.812-140.088,61.768
	c-49.052,19.579-82.56,54.301-91.24,62.98c-15.14,14.938-34.114,11.102-44.408,10.495c-10.295-0.604-20.186-5.854-24.425-6.662
	c-4.239-0.807-13.929,0.202-13.929,0.202s0.403-4.642,3.835-7.064c3.633-2.22,10.901-3.028,23.819-5.65
	c12.919-2.625,22.81-9.489,27.856-12.92c5.249-3.432,1.817-4.442-1.614-3.634c-3.23,0.808-13.727,4.845-31.691,7.469
	c-17.966,2.625-23.819,1.212-30.683,6.056c-7.065,4.643-5.45,16.553-7.065,19.782c-1.614,3.431-2.826,4.239-5.249,2.018
	c-2.22-2.018-3.229-10.091-1.615-16.753c1.817-6.662,12.313-12.111,22.204-14.333c9.892-2.22,30.885-3.633,53.694-15.744
	c67.421-35.729,97.093-62.576,156.641-108.6c63.384-48.849,119.903-75.898,164.513-97.496
	c27.452-13.323,108.802-23.214,108.802-23.214s-11.709-7.872-23.819-9.285c-7.267-0.807-14.331-1.009-21.195-0.807
	c11.102-6.057,39.361-27.857,43.602-55.916c5.45-37.545-44.408-68.631-45.015-102.745c-1.615-79.531-81.55-90.835-77.916-88.616
	c14.938,9.286,30.479,27.251,33.306,37.546c5.249,18.772-10.697,39.16-33.912,47.032c-11.103,3.633-72.468,17.158-80.541,25.434
	c-8.275,8.276,8.68,51.675-2.22,69.237c-10.901,17.562-71.861,47.638-79.128,56.117c-7.267,8.478-14.938,5.853-17.562,5.652
	c-2.624-0.202-0.403,3.028,7.065,4.642c7.469,1.615,20.388-2.825,27.856-6.863c7.468-4.239,17.965,4.644,17.561,10.497
	c-0.604,5.652-7.671,7.268-21.396,15.948c-10.9,6.863-41.986-12.516-44.61-18.976c-2.625-6.459,6.46-4.239,12.112-11.304
	c5.652-6.863-4.24-8.075-7.671-6.863c-3.633,1.01-5.652-0.807-9.285-1.817c-3.633-1.009-8.276,0-10.497,2.625s0,4.642-8.478,5.652
	c-8.479,1.009-4.643-9.285-2.827-20.387c1.817-11.102,8.882-40.573,7.469-44.207c-1.413-3.835-1.614-2.422-4.642-6.057
	c-3.029-3.633-3.23-10.092-3.634-20.588c-0.201-10.498,0.605-30.077,0.605-30.077s-6.459,9.487-9.285,26.242
	c-2.826,16.754,8.882,26.039,9.084,28.664c0.201,2.624-0.404,8.68-5.451,38.353c-5.248,29.673,1.211,35.325,7.671,40.574
	c6.459,5.248,35.325,20.185,35.325,20.185l-0.605,13.323c0,0-14.332,4.643-27.856,13.524c-13.524,8.68-18.57,24.424-19.58,29.673
	c-1.01,5.248,1.817,4.439,1.817,4.439s3.028-3.229,13.726-11.504c10.497-8.277,33.709-12.718,36.536-12.92
	c2.826-0.202,3.028,0.807-0.605,3.432c-3.633,2.624-13.121,9.488-33.508,24.628c-20.387,15.34-23.214,34.314-23.214,38.755
	c0,4.239,2.827,0.809,2.827,0.809s2.825-6.46,9.891-12.92c6.863-6.46,22.607-10.295,40.169-13.119
	c17.562-2.827,20.387-7.267,25.838-15.342c5.45-7.873,20.185-22.811,23.213-24.829c3.029-1.817,3.836-0.807,2.019,0.606
	c-1.816,1.412-2.825,2.423-12.111,12.313c-9.285,10.093-10.9,22.002-10.9,22.002s5.046-7.064,16.553-14.938
	c11.302-8.075,38.957-16.955,46.224-18.772c7.066-1.816,6.662-0.808,5.45,0.202c-1.211,1.009-2.018,1.211-10.093,5.45
	c-7.873,4.036-36.133,20.791-73.072,48.244c-37.747,28.057-68.632,60.354-99.111,82.962c-30.279,22.406-53.088,32.5-64.999,34.518
	c-11.91,2.02-25.838-4.845-43.399-5.651c-17.562-0.809-29.269,11.103-31.086,13.727c-1.817,2.624-1.817,4.845-0.202,4.642
	c1.614-0.201,4.441-3.431,7.064-3.431c2.625,0,2.423,1.613,2.423,1.613s-1.211,0.606-6.257,3.029
	c-4.845,2.624-12.314,9.891-15.947,20.992c-3.633,10.9,4.845,27.453,4.845,27.453s5.45,0,12.918,3.229
	c7.469,3.029,12.313,5.047,15.947,7.269c3.633,2.019,7.266,2.625,14.735,0.604c7.469-2.22,22.811-2.22,33.307-1.615
	c10.497,0.404,51.675,10.498,78.119-6.66c82.56-72.467,168.955-66.209,200.041-77.312c63.585-23.213,53.088-109.204,165.118-96.084
	C520.485,392.392,432.88,364.332,377.772,434.58L377.772,434.58z M134.535,256.541c4.239,3.23,12.314,18.167,11.304,15.745
	c-1.009-2.422,3.23-16.148-5.854-33.105c-9.285-16.956-12.111-23.214-16.148-40.169c-4.037-17.159-11.303-31.086,0.808-41.583
	c12.313-10.497,21.801-25.635,25.636-41.784s16.956-28.866,31.489-46.428c14.534-17.562,17.359-20.186,17.359-20.186
	c-3.431,4.643-10.294,23.416-13.322,33.307c-3.23,9.891-18.975,31.49-26.242,42.996c-7.065,11.506-23.415,33.71-24.828,54.501
	c-1.211,20.792,15.745,45.418,18.368,54.502c2.423,9.083-3.431,34.719,2.827,53.089c6.056,18.369,23.415,35.325,26.645,37.545
	c3.028,2.221,2.422,0,1.413-1.211c-1.009-1.211-3.027-3.028-7.267-11.909c-4.24-8.681-2.221-18.572,0.606-31.894
	c3.027-13.323,4.441-24.021,3.229-37.344c-1.211-13.323-11.91-35.931-15.139-49.658c-3.229-13.726,5.047-27.25,18.974-50.666
	c13.727-23.617,15.746-43.4,17.562-57.933c1.816-14.534,9.891-35.326,31.691-44.409c12.718-5.248,48.041,2.019,66.412,13.525
	c12.917,8.68,19.377,16.754,21.193,26.04c2.222,10.9-4.44,18.369-8.479,28.865c-4.035,10.699-6.861,23.012-2.22,22.406
	c4.038-0.403,51.475-40.371,62.172-51.876c5.249-5.854,12.313-20.59,2.221-33.71c-8.681-11.506-70.448-16.552-82.356-33.105
	c-10.498-14.736-37.95-13.928-46.023-8.478c-7.47,5.046-23.82,18.773-39.767,24.222c-15.946,5.451-32.297,8.075-53.896,18.975
	c-21.598,11.102-20.589,23.819-23.012,33.105c-2.422,9.285-4.038,34.316-21.598,61.163c-17.764,26.846-7.469,45.216,1.211,72.466
	C117.78,240.191,130.295,253.311,134.535,256.541L134.535,256.541z M251.411,242.814c-0.404,3.028,2.624,0.202,5.046-3.23
	c2.422-3.633,12.111-19.58,27.855-46.629c15.744-27.048,25.03-50.262,24.224-50.868c-1.011-0.605-3.23,1.615-5.653,3.432
	c-2.624,1.816-7.671,6.863-11.908,12.313c-4.24,5.45-7.873,4.844-13.323,6.056c-5.45,1.211-15.341,11.91-20.993,16.553
	c-5.652,4.44-13.322,9.083-20.387,10.092c-7.671,1.211-8.882-2.22-12.112-1.615c-3.229,0.605-3.028,5.854-2.018,9.689
	c1.211,3.633,0.201,5.451-0.404,11.91c-0.605,6.661,4.038,12.918,7.873,16.754c3.834,3.633,2.624,9.488,5.248,11.506
	c2.624,2.019,3.432-11.304,3.432-19.581c0-8.074-1.816-16.148-1.615-17.359c0.404-1.211,6.863-3.028,9.892-5.047
	c3.229-2.019,10.697-7.469,14.331-9.285c3.835-1.817,3.835-0.403,2.827,1.615c-1.009,2.22-3.028,5.45-7.065,8.881
	c-4.239,3.633-14.129,6.257-16.35,6.459c-2.221,0.202-2.019,2.019,0.201,3.835c2.221,1.615,7.671,1.615,12.515,0.403
	c4.845-1.413,4.239,5.047,3.633,11.91C256.053,227.474,251.814,239.787,251.411,242.814L251.411,242.814z M357.99,20.166
	c36.939,11.91,45.015,43.804,32.298,58.337c-7.064,8.074-15.14,12.919-33.711,24.425c-18.57,11.506-25.837,17.562-31.692,22.003
	c-5.854,4.642-9.082,10.899,3.635,7.469c1.212-0.405,79.33-17.159,89.423-22.406c16.955-8.882,21.8-14.938,24.424-26.444
	c2.625-11.505-14.938-30.48-23.213-39.766c-16.553-19.176-56.318-38.958-58.136-39.16c-19.984-6.661-44.408-1.211-64.393-0.202
	c-2.22,0-1.413,3.432-0.202,4.239C314.39,20.974,336.189,15.12,357.99,20.166L357.99,20.166z"/>

</svg>
