<?xml version="1.0" encoding="utf-8"?>
<!-- Generator: Adobe Illustrator 16.0.0, SVG Export Plug-In . SVG Version: 6.00 Build 0)  -->
<!DOCTYPE svg PUBLIC "-//W3C//DTD SVG 1.1//EN" "http://www.w3.org/Graphics/SVG/1.1/DTD/svg11.dtd">
<svg version="1.1" id="Capa_1" xmlns="http://www.w3.org/2000/svg" xmlns:xlink="http://www.w3.org/1999/xlink" x="0px" y="0px"
	 width="547.131px" height="588.882px" viewBox="0 0 547.131 588.882" enable-background="new 0 0 547.131 588.882"
	 xml:space="preserve">
<g>
	<path fill-rule="evenodd" clip-rule="evenodd" fill="#020304" d="M261.117,553.659c-52.164,0.445-101.036-12.314-147.214-36.295
		c-6.065-3.148-8.405-6.881-8.238-13.789c1.739-71.807,25.759-135.43,71.465-190.416c51.399-61.836,117.851-98.027,197.351-108.822
		c67.137-9.115,130.779,3.489,190.57,35.59c5.393,2.896,5.541,6.705,5.422,11.497c-1.629,64.487-20.936,123.257-59.166,175.103
		c-56.061,76.025-132.166,117.316-225.875,126.701c-4.023,0.402-8.098,0.352-12.148,0.418
		C269.228,553.71,265.171,553.659,261.117,553.659z M202.636,365.593c-21.39,33.416-33.405,68.787-37.778,106.734
		c-0.299,2.59,3.237,7.092,6.043,8.348c40.419,18.098,82.729,24.688,126.69,18.936c74.697-9.775,133.24-46.059,175.082-108.654
		c22.881-34.232,35.57-72.205,38.984-113.447c-37.059-17.045-75.176-25.237-116.967-23.099
		c45.346,41.002,51.551,96.491,31.471,140.067c-21.779,47.264-64.77,69.453-109.07,68.506
		C263.391,461.835,216.164,427.19,202.636,365.593z"/>
	<path fill-rule="evenodd" clip-rule="evenodd" fill="#020304" d="M175.548,193.373c0-32.929,0-64.248,0-97.263
		c28.588,16.42,55.738,32.015,84.156,48.337c7.849-31.146,15.492-61.477,23.766-94.309c23.828,22.933,46.502,44.754,70.082,67.446
		c15.129-28.214,30.045-56.035,45.951-85.705c17.531,27.944,34.221,54.545,51.652,82.329c18.68-20.452,36.24-39.678,54.713-59.903
		c31.975,41.216,51.424,86.552,60.711,138.645c-112.098-48.545-221.793-46.823-327.051,14.047
		C134.429,267.775,78.061,361.665,63.532,483.149c-40.507-33.354-69.525-73.355-89.604-121.684
		c27.054-5.912,52.765-11.533,79.438-17.361c-15.294-28.777-30.083-56.603-45.682-85.951c33.271,1.14,64.527,2.212,97.347,3.337
		c-7.765-31.347-15.283-61.694-23.417-94.53C113.206,175.844,143.418,184.338,175.548,193.373z"/>
</g>
</svg>
