<?xml version="1.0" encoding="utf-8"?>
<!-- Generator: Adobe Illustrator 16.0.0, SVG Export Plug-In . SVG Version: 6.00 Build 0)  -->
<!DOCTYPE svg PUBLIC "-//W3C//DTD SVG 1.1//EN" "http://www.w3.org/Graphics/SVG/1.1/DTD/svg11.dtd">
<svg version="1.1" id="Capa_1" xmlns="http://www.w3.org/2000/svg" xmlns:xlink="http://www.w3.org/1999/xlink" x="0px" y="0px"
	 width="430.117px" height="430.117px" viewBox="0 0 430.117 430.117" enable-background="new 0 0 430.117 430.117"
	 xml:space="preserve">
<g>
	<path id="LinkedIn" d="M430.117,261.543v159.018h-92.188V272.193c0-37.271-13.334-62.708-46.702-62.708
		c-25.474,0-40.633,17.142-47.302,33.724c-2.432,5.929-3.058,14.179-3.058,22.478v154.873h-92.219c0,0,1.242-251.286,0-277.32
		h92.209v39.309c-0.187,0.294-0.43,0.611-0.605,0.896h0.605v-0.896c12.252-18.869,34.131-45.824,83.103-45.824
		C384.633,136.724,430.117,176.361,430.117,261.543z M52.183,9.558C20.635,9.558,0,30.251,0,57.463
		c0,26.619,20.038,47.94,50.959,47.94h0.616c32.159,0,52.159-21.317,52.159-47.94C103.128,30.251,83.734,9.558,52.183,9.558z
		 M5.477,420.561h92.184V143.24H5.477V420.561z"/>
</g>
<g display="none">
	<path display="inline" d="M227.117,16.992c-10.971-7.262-25.279-7.098-36.095,0.439L29.277,130.086
		c-8.623,6.019-13.763,15.854-13.763,26.378v121.374c0,10.796,5.409,20.859,14.421,26.81l164.395,108.678
		c10.746,7.127,24.704,7.127,35.449,0l167.645-110.762c9.012-5.949,14.435-16.016,14.435-26.811V156.488
		c0-10.782-5.423-20.849-14.411-26.798L227.117,16.992z M352.361,148.48l-61.98,41.605l-58.093-42.264l-0.376-83.12L352.361,148.48z
		 M189.868,64.778v81.349l-59.546,41.647l-59.397-39.833L189.868,64.778z M54.638,188.031l38.447,25.765l-38.447,26.886V188.031z
		 M190.885,361.459L70.95,281.024l59.912-41.873l60.023,40.267V361.459z M168.108,213.118l38.831-27.157l45.23,29.728
		l-40.091,26.926L168.108,213.118z M233.241,361.459v-82.066l57.365-38.458l61.755,40.618L233.241,361.459z M369.482,242.062
		l-40.719-26.748L369.482,188V242.062z"/>
</g>
<g display="none">
	<g display="inline">
		<path fill="#030104" d="M379.406,95.261c19.25-11.817,31.996-27.946,38.239-48.458c-18.727,9.935-37.381,16.749-56.012,20.513
			c-16.748-18.011-37.951-27.16-63.371-27.16c-24.849,0-45.838,8.72-62.966,25.683c-17.035,17.082-25.636,37.833-25.636,62.062
			c0,7.361,0.93,13.938,2.788,19.512C139.166,144.91,78.51,114.511,30.719,55.999c-8.1,14.319-12.15,28.899-12.15,43.979
			c0,30.995,13.079,55.558,39.19,73.592c-14.89-1.262-28.017-5.026-39.19-11.196c0,22.132,6.503,40.62,19.536,56.891
			c13.079,16.106,29.875,26.373,50.388,30.758c-7.434,1.905-15.272,2.811-23.324,2.811c-7.434,0-12.699-0.619-15.819-1.979
			c5.479,18.036,15.819,32.664,30.756,43.861c14.89,11.245,32.02,17.178,51.269,17.702C99.642,337.314,63.358,349.63,22.31,349.63
			c-10.054,0-17.178-0.143-21.49-0.906c40.429,26.254,85.433,39.287,135.225,39.287c50.959,0,95.987-12.913,135.178-38.737
			c39.19-25.684,68.112-57.369,86.695-94.678c18.678-37.262,27.922-76.046,27.922-116.547v-11.15
			c18.059-13.579,32.662-28.874,43.836-45.766C413.476,88.114,396.728,92.854,379.406,95.261z"/>
	</g>
</g>
</svg>
