<?xml version="1.0" encoding="utf-8"?>
<!-- Generator: Adobe Illustrator 19.0.0, SVG Export Plug-In . SVG Version: 6.00 Build 0)  -->
<svg version="1.1" id="Layer_1" xmlns="http://www.w3.org/2000/svg" xmlns:xlink="http://www.w3.org/1999/xlink" x="0px" y="0px"
	 viewBox="488.1 270.8 287.9 300" style="enable-background:new 488.1 270.8 287.9 300;" xml:space="preserve">
<style type="text/css">
	.st0{fill:#888887;}
</style>
<g>
	<g>
		<path class="st0" d="M630.9,321.9c2.3,3.2,0.2,13.4,2.8,13.1c2.5-0.3,11.1-17,8.3-22.8c-2.9-5.8-23.2-12.5-26.7-12.7
			c-13.8-0.8-17.8,10.2-19.4,19c-0.7,4-13.8,32.6-13.2,31.7l27.1-30.7C614.4,314.9,627.5,317.2,630.9,321.9L630.9,321.9z
			 M498.6,550.1c-1,2.5-4.4-1.5-3.4-4.3c0.3-0.8,4.4-9.9,13.5-8C511.4,538.4,501.9,542,498.6,550.1L498.6,550.1z M642,414.5
			c6.2-3.6,24.2-31.9,24.9-30.4c0.6,1.5,1.6,9.3-0.3,14.8C664,406.1,642,414.5,642,414.5L642,414.5z M677.7,352.6
			c-0.6-1.4,15.9,29.7,12.6,43.4c-5.2,21.8-24.7,36.8-24.7,36.8s9.3-17.8,10.7-21C677.7,408.6,687,376.2,677.7,352.6L677.7,352.6z
			 M724,370.6c9.8,16.8-3.7,35.9-6.6,38.6c-2.4,2.3-7.3,4.9-10.6,6.6c5.9-5.4,11.3-12.2,12.9-20.2c1.5-8.1-1-16.2-5.2-25.2
			c-0.8-1.7-15.7-23.7-17-24.9C699.8,345.8,719,359.4,724,370.6L724,370.6z M730.2,410.2c12.3-12.3,14.2-25.3,14.8-30.7
			c2.3,11.7-4.3,28.4-9.7,36.1c-4.6,0.2-9,0.8-13.1,1.5C725.3,415.3,727.3,413.1,730.2,410.2L730.2,410.2z M675.5,490.5
			c-18.1,23.2-48.6,22.2-69.4,30.6c-24.3,9.7-40.9,26.9-45.2,31.2c-7.5,7.4-16.9,5.5-22,5.2c-5.1-0.3-10-2.9-12.1-3.3
			c-2.1-0.4-6.9,0.1-6.9,0.1s0.2-2.3,1.9-3.5c1.8-1.1,5.4-1.5,11.8-2.8c6.4-1.3,11.3-4.7,13.8-6.4c2.6-1.7,0.9-2.2-0.8-1.8
			c-1.6,0.4-6.8,2.4-15.7,3.7c-8.9,1.3-11.8,0.6-15.2,3c-3.5,2.3-2.7,8.2-3.5,9.8c-0.8,1.7-1.4,2.1-2.6,1c-1.1-1-1.6-5-0.8-8.3
			c0.9-3.3,6.1-6,11-7.1c4.9-1.1,15.3-1.8,26.6-7.8c33.4-17.7,48.1-31,77.6-53.8c31.4-24.2,59.4-37.6,81.5-48.3
			c13.6-6.6,53.9-11.5,53.9-11.5s-5.8-3.9-11.8-4.6c-3.6-0.4-7.1-0.5-10.5-0.4c5.5-3,19.5-13.8,21.6-27.7c2.7-18.6-22-34-22.3-50.9
			c-0.8-39.4-40.4-45-38.6-43.9c7.4,4.6,15.1,13.5,16.5,18.6c2.6,9.3-5.3,19.4-16.8,23.3c-5.5,1.8-35.9,8.5-39.9,12.6
			c-4.1,4.1,4.3,25.6-1.1,34.3c-5.4,8.7-35.6,23.6-39.2,27.8c-3.6,4.2-7.4,2.9-8.7,2.8c-1.3-0.1-0.2,1.5,3.5,2.3
			c3.7,0.8,10.1-1.4,13.8-3.4c3.7-2.1,8.9,2.3,8.7,5.2c-0.3,2.8-3.8,3.6-10.6,7.9c-5.4,3.4-20.8-6.2-22.1-9.4
			c-1.3-3.2,3.2-2.1,6-5.6c2.8-3.4-2.1-4-3.8-3.4c-1.8,0.5-2.8-0.4-4.6-0.9c-1.8-0.5-4.1,0-5.2,1.3c-1.1,1.3,0,2.3-4.2,2.8
			c-4.2,0.5-2.3-4.6-1.4-10.1c0.9-5.5,4.4-20.1,3.7-21.9c-0.7-1.9-0.8-1.2-2.3-3c-1.5-1.8-1.6-5-1.8-10.2
			c-0.1-5.2,0.3-14.9,0.3-14.9s-3.2,4.7-4.6,13c-1.4,8.3,4.4,12.9,4.5,14.2c0.1,1.3-0.2,4.3-2.7,19c-2.6,14.7,0.6,17.5,3.8,20.1
			c3.2,2.6,17.5,10,17.5,10l-0.3,6.6c0,0-7.1,2.3-13.8,6.7c-6.7,4.3-9.2,12.1-9.7,14.7c-0.5,2.6,0.9,2.2,0.9,2.2s1.5-1.6,6.8-5.7
			c5.2-4.1,16.7-6.3,18.1-6.4c1.4-0.1,1.5,0.4-0.3,1.7c-1.8,1.3-6.5,4.7-16.6,12.2c-10.1,7.6-11.5,17-11.5,19.2
			c0,2.1,1.4,0.4,1.4,0.4s1.4-3.2,4.9-6.4c3.4-3.2,11.2-5.1,19.9-6.5c8.7-1.4,10.1-3.6,12.8-7.6c2.7-3.9,10-11.3,11.5-12.3
			c1.5-0.9,1.9-0.4,1,0.3c-0.9,0.7-1.4,1.2-6,6.1c-4.6,5-5.4,10.9-5.4,10.9s2.5-3.5,8.2-7.4c5.6-4,19.3-8.4,22.9-9.3
			c3.5-0.9,3.3-0.4,2.7,0.1c-0.6,0.5-1,0.6-5,2.7c-3.9,2-17.9,10.3-36.2,23.9c-18.7,13.9-34,29.9-49.1,41.1
			c-15,11.1-26.3,16.1-32.2,17.1c-5.9,1-12.8-2.4-21.5-2.8c-8.7-0.4-14.5,5.5-15.4,6.8c-0.9,1.3-0.9,2.4-0.1,2.3
			c0.8-0.1,2.2-1.7,3.5-1.7c1.3,0,1.2,0.8,1.2,0.8s-0.6,0.3-3.1,1.5c-2.4,1.3-6.1,4.9-7.9,10.4c-1.8,5.4,2.4,13.6,2.4,13.6
			s2.7,0,6.4,1.6c3.7,1.5,6.1,2.5,7.9,3.6c1.8,1,3.6,1.3,7.3,0.3c3.7-1.1,11.3-1.1,16.5-0.8c5.2,0.2,25.6,5.2,38.7-3.3
			c40.9-35.9,83.7-32.8,99.1-38.3c31.5-11.5,26.3-54.1,81.8-47.6C746.2,469.6,702.8,455.7,675.5,490.5L675.5,490.5z M555,402.3
			c2.1,1.6,6.1,9,5.6,7.8c-0.5-1.2,1.6-8-2.9-16.4c-4.6-8.4-6-11.5-8-19.9c-2-8.5-5.6-15.4,0.4-20.6c6.1-5.2,10.8-12.7,12.7-20.7
			c1.9-8,8.4-14.3,15.6-23c7.2-8.7,8.6-10,8.6-10c-1.7,2.3-5.1,11.6-6.6,16.5c-1.6,4.9-9.4,15.6-13,21.3c-3.5,5.7-11.6,16.7-12.3,27
			c-0.6,10.3,7.8,22.5,9.1,27c1.2,4.5-1.7,17.2,1.4,26.3c3,9.1,11.6,17.5,13.2,18.6c1.5,1.1,1.2,0,0.7-0.6c-0.5-0.6-1.5-1.5-3.6-5.9
			c-2.1-4.3-1.1-9.2,0.3-15.8c1.5-6.6,2.2-11.9,1.6-18.5c-0.6-6.6-5.9-17.8-7.5-24.6c-1.6-6.8,2.5-13.5,9.4-25.1
			c6.8-11.7,7.8-21.5,8.7-28.7c0.9-7.2,4.9-17.5,15.7-22c6.3-2.6,23.8,1,32.9,6.7c6.4,4.3,9.6,8.3,10.5,12.9
			c1.1,5.4-2.2,9.1-4.2,14.3c-2,5.3-3.4,11.4-1.1,11.1c2-0.2,25.5-20,30.8-25.7c2.6-2.9,6.1-10.2,1.1-16.7
			c-4.3-5.7-34.9-8.2-40.8-16.4c-5.2-7.3-18.8-6.9-22.8-4.2c-3.7,2.5-11.8,9.3-19.7,12c-7.9,2.7-16,4-26.7,9.4
			c-10.7,5.5-10.2,11.8-11.4,16.4c-1.2,4.6-2,17-10.7,30.3c-8.8,13.3-3.7,22.4,0.6,35.9C546.7,394.2,552.9,400.7,555,402.3
			L555,402.3z M612.9,395.5c-0.2,1.5,1.3,0.1,2.5-1.6c1.2-1.8,6-9.7,13.8-23.1c7.8-13.4,12.4-24.9,12-25.2c-0.5-0.3-1.6,0.8-2.8,1.7
			c-1.3,0.9-3.8,3.4-5.9,6.1c-2.1,2.7-3.9,2.4-6.6,3c-2.7,0.6-7.6,5.9-10.4,8.2c-2.8,2.2-6.6,4.5-10.1,5c-3.8,0.6-4.4-1.1-6-0.8
			c-1.6,0.3-1.5,2.9-1,4.8c0.6,1.8,0.1,2.7-0.2,5.9c-0.3,3.3,2,6.4,3.9,8.3c1.9,1.8,1.3,4.7,2.6,5.7c1.3,1,1.7-5.6,1.7-9.7
			c0-4-0.9-8-0.8-8.6c0.2-0.6,3.4-1.5,4.9-2.5c1.6-1,5.3-3.7,7.1-4.6c1.9-0.9,1.9-0.2,1.4,0.8c-0.5,1.1-1.5,2.7-3.5,4.4
			c-2.1,1.8-7,3.1-8.1,3.2c-1.1,0.1-1,1,0.1,1.9c1.1,0.8,3.8,0.8,6.2,0.2c2.4-0.7,2.1,2.5,1.8,5.9
			C615.2,387.9,613.1,394,612.9,395.5L612.9,395.5z M665.7,285.2c18.3,5.9,22.3,21.7,16,28.9c-3.5,4-7.5,6.4-16.7,12.1
			c-9.2,5.7-12.8,8.7-15.7,10.9c-2.9,2.3-4.5,5.4,1.8,3.7c0.6-0.2,39.3-8.5,44.3-11.1c8.4-4.4,10.8-7.4,12.1-13.1
			c1.3-5.7-7.4-15.1-11.5-19.7c-8.2-9.5-27.9-19.3-28.8-19.4c-9.9-3.3-22-0.6-31.9-0.1c-1.1,0-0.7,1.7-0.1,2.1
			C644.1,285.6,654.9,282.7,665.7,285.2L665.7,285.2z"/>
	</g>
</g>
</svg>
