<?xml version="1.0" encoding="utf-8"?>
<!-- Generator: Adobe Illustrator 16.0.0, SVG Export Plug-In . SVG Version: 6.00 Build 0)  -->
<!DOCTYPE svg PUBLIC "-//W3C//DTD SVG 1.1//EN" "http://www.w3.org/Graphics/SVG/1.1/DTD/svg11.dtd">
<svg version="1.1" id="Capa_1" xmlns="http://www.w3.org/2000/svg" xmlns:xlink="http://www.w3.org/1999/xlink" x="0px" y="0px"
	 width="547.131px" height="588.882px" viewBox="0 0 547.131 588.882" enable-background="new 0 0 547.131 588.882"
	 xml:space="preserve">
<g id="CazYmy.tif" display="none">
	<g display="inline">
		<path fill="none" d="M-105.39,673.493c0-252.637,0-505.272,0-758.104c252.481,0,505.037,0,757.91,0c0,252.571,0,505.338,0,758.104
			C400.062,673.493,147.376,673.493-105.39,673.493z M261.117,553.659c4.054,0,8.111,0.051,12.166-0.014
			c4.051-0.066,8.125-0.016,12.148-0.418c93.709-9.385,169.814-50.676,225.875-126.701c38.23-51.846,57.537-110.615,59.166-175.103
			c0.119-4.792-0.029-8.602-5.422-11.497c-59.791-32.101-123.434-44.705-190.57-35.59c-79.5,10.795-145.952,46.986-197.351,108.822
			c-45.706,54.986-69.726,118.609-71.465,190.416c-0.167,6.908,2.173,10.641,8.238,13.789
			C160.081,541.345,208.953,554.104,261.117,553.659z M175.548,193.373c-32.129-9.035-62.342-17.529-93.935-26.413
			c8.134,32.836,15.652,63.184,23.417,94.53c-32.82-1.125-64.076-2.197-97.347-3.337c15.598,29.349,30.387,57.174,45.682,85.951
			c-26.672,5.828-52.383,11.449-79.438,17.361c20.079,48.328,49.097,88.33,89.604,121.684
			c14.529-121.484,70.897-215.374,175.996-276.152c105.258-60.87,214.954-62.592,327.051-14.047
			c-9.287-52.093-28.736-97.429-60.711-138.645c-18.473,20.226-36.033,39.451-54.713,59.903
			c-17.432-27.784-34.121-54.385-51.652-82.329c-15.906,29.67-30.822,57.491-45.951,85.705
			c-23.58-22.692-46.254-44.514-70.082-67.446c-8.273,32.832-15.917,63.163-23.766,94.309
			c-28.418-16.322-55.568-31.917-84.156-48.337C175.548,129.125,175.548,160.444,175.548,193.373z"/>
		<path fill-rule="evenodd" clip-rule="evenodd" fill="none" d="M202.636,365.593c13.528,61.598,60.755,96.242,114.455,97.391
			c44.301,0.947,87.291-21.242,109.07-68.506c20.08-43.576,13.875-99.065-31.471-140.067c41.791-2.139,79.908,6.054,116.967,23.099
			c-3.414,41.242-16.104,79.215-38.984,113.447c-41.842,62.596-100.385,98.879-175.082,108.654
			c-43.961,5.752-86.271-0.838-126.69-18.936c-2.807-1.256-6.342-5.758-6.043-8.348C169.231,434.38,181.246,399.009,202.636,365.593
			z"/>
	</g>
</g>
<path id="cannes" fill="#F39123" d="M287.743,94.248c4.645,6.459,0.404,27.049,5.653,26.443
	c5.047-0.605,22.406-34.315,16.753-46.023c-5.854-11.708-46.83-25.232-53.895-25.636c-27.857-1.615-35.93,20.589-39.16,38.353
	c-1.413,8.074-27.857,65.805-26.646,63.988l54.704-61.97C254.438,80.118,280.881,84.76,287.743,94.248L287.743,94.248z
	 M20.687,554.886c-2.018,5.047-8.881-3.026-6.863-8.68c0.605-1.615,8.882-19.983,27.251-16.148
	C46.525,531.269,27.349,538.535,20.687,554.886L20.687,554.886z M310.149,281.168c12.516-7.268,48.85-64.393,50.264-61.365
	c1.211,3.028,3.229,18.773-0.606,29.875C354.56,264.212,310.149,281.168,310.149,281.168L310.149,281.168z M382.212,156.218
	c-1.211-2.826,32.098,59.952,25.436,87.606c-10.498,44.005-49.859,74.282-49.859,74.282s18.773-35.93,21.6-42.389
	C382.212,269.258,400.985,203.856,382.212,156.218L382.212,156.218z M475.673,192.552c19.781,33.913-7.469,72.467-13.322,77.917
	c-4.845,4.643-14.735,9.891-21.397,13.323c11.911-10.901,22.811-24.627,26.04-40.776c3.028-16.351-2.019-32.7-10.496-50.868
	c-1.615-3.432-31.692-47.84-34.316-50.262C426.824,142.491,465.579,169.944,475.673,192.552L475.673,192.552z M488.188,272.488
	c24.829-24.829,28.664-51.07,29.875-61.971c4.645,23.617-8.68,57.328-19.579,72.871c-9.287,0.404-18.167,1.615-26.444,3.028
	C478.297,282.783,482.335,278.342,488.188,272.488L488.188,272.488z M377.772,434.58c-36.537,46.83-98.103,44.812-140.088,61.768
	c-49.052,19.579-82.56,54.301-91.24,62.98c-15.14,14.938-34.114,11.102-44.408,10.495c-10.295-0.604-20.186-5.854-24.425-6.662
	c-4.239-0.807-13.929,0.202-13.929,0.202s0.403-4.642,3.835-7.064c3.633-2.22,10.901-3.028,23.819-5.65
	c12.919-2.625,22.81-9.489,27.856-12.92c5.249-3.432,1.817-4.442-1.614-3.634c-3.23,0.808-13.727,4.845-31.691,7.469
	c-17.966,2.625-23.819,1.212-30.683,6.056c-7.065,4.643-5.45,16.553-7.065,19.782c-1.614,3.431-2.826,4.239-5.249,2.018
	c-2.22-2.018-3.229-10.091-1.615-16.753c1.817-6.662,12.313-12.111,22.204-14.333c9.892-2.22,30.885-3.633,53.694-15.744
	c67.421-35.729,97.093-62.576,156.641-108.6c63.384-48.849,119.903-75.898,164.513-97.496
	c27.452-13.323,108.802-23.214,108.802-23.214s-11.709-7.872-23.819-9.285c-7.267-0.807-14.331-1.009-21.195-0.807
	c11.102-6.057,39.361-27.857,43.602-55.916c5.45-37.545-44.408-68.631-45.015-102.745c-1.615-79.531-81.55-90.835-77.916-88.616
	c14.938,9.286,30.479,27.251,33.306,37.546c5.249,18.772-10.697,39.16-33.912,47.032c-11.103,3.633-72.468,17.158-80.541,25.434
	c-8.275,8.276,8.68,51.675-2.22,69.237c-10.901,17.562-71.861,47.638-79.128,56.117c-7.267,8.478-14.938,5.853-17.562,5.652
	c-2.624-0.202-0.403,3.028,7.065,4.642c7.469,1.615,20.388-2.825,27.856-6.863c7.468-4.239,17.965,4.644,17.561,10.497
	c-0.604,5.652-7.671,7.268-21.396,15.948c-10.9,6.863-41.986-12.516-44.61-18.976c-2.625-6.459,6.46-4.239,12.112-11.304
	c5.652-6.863-4.24-8.075-7.671-6.863c-3.633,1.01-5.652-0.807-9.285-1.817c-3.633-1.009-8.276,0-10.497,2.625s0,4.642-8.478,5.652
	c-8.479,1.009-4.643-9.285-2.827-20.387c1.817-11.102,8.882-40.573,7.469-44.207c-1.413-3.835-1.614-2.422-4.642-6.057
	c-3.029-3.633-3.23-10.092-3.634-20.588c-0.201-10.498,0.605-30.077,0.605-30.077s-6.459,9.487-9.285,26.242
	c-2.826,16.754,8.882,26.039,9.084,28.664c0.201,2.624-0.404,8.68-5.451,38.353c-5.248,29.673,1.211,35.325,7.671,40.574
	c6.459,5.248,35.325,20.185,35.325,20.185l-0.605,13.323c0,0-14.332,4.643-27.856,13.524c-13.524,8.68-18.57,24.424-19.58,29.673
	c-1.01,5.248,1.817,4.439,1.817,4.439s3.028-3.229,13.726-11.504c10.497-8.277,33.709-12.718,36.536-12.92
	c2.826-0.202,3.028,0.807-0.605,3.432c-3.633,2.624-13.121,9.488-33.508,24.628c-20.387,15.34-23.214,34.314-23.214,38.755
	c0,4.239,2.827,0.809,2.827,0.809s2.825-6.46,9.891-12.92c6.863-6.46,22.607-10.295,40.169-13.119
	c17.562-2.827,20.387-7.267,25.838-15.342c5.45-7.873,20.185-22.811,23.213-24.829c3.029-1.817,3.836-0.807,2.019,0.606
	c-1.816,1.412-2.825,2.423-12.111,12.313c-9.285,10.093-10.9,22.002-10.9,22.002s5.046-7.064,16.553-14.938
	c11.302-8.075,38.957-16.955,46.224-18.772c7.066-1.816,6.662-0.808,5.45,0.202c-1.211,1.009-2.018,1.211-10.093,5.45
	c-7.873,4.036-36.133,20.791-73.072,48.244c-37.747,28.057-68.632,60.354-99.111,82.962c-30.279,22.406-53.088,32.5-64.999,34.518
	c-11.91,2.02-25.838-4.845-43.399-5.651c-17.562-0.809-29.269,11.103-31.086,13.727c-1.817,2.624-1.817,4.845-0.202,4.642
	c1.614-0.201,4.441-3.431,7.064-3.431c2.625,0,2.423,1.613,2.423,1.613s-1.211,0.606-6.257,3.029
	c-4.845,2.624-12.314,9.891-15.947,20.992c-3.633,10.9,4.845,27.453,4.845,27.453s5.45,0,12.918,3.229
	c7.469,3.029,12.313,5.047,15.947,7.269c3.633,2.019,7.266,2.625,14.735,0.604c7.469-2.22,22.811-2.22,33.307-1.615
	c10.497,0.404,51.675,10.498,78.119-6.66c82.56-72.467,168.955-66.209,200.041-77.312c63.585-23.213,53.088-109.204,165.118-96.084
	C520.485,392.392,432.88,364.332,377.772,434.58L377.772,434.58z M134.535,256.541c4.239,3.23,12.314,18.167,11.304,15.745
	c-1.009-2.422,3.23-16.148-5.854-33.105c-9.285-16.956-12.111-23.214-16.148-40.169c-4.037-17.159-11.303-31.086,0.808-41.583
	c12.313-10.497,21.801-25.635,25.636-41.784s16.956-28.866,31.489-46.428c14.534-17.562,17.359-20.186,17.359-20.186
	c-3.431,4.643-10.294,23.416-13.322,33.307c-3.23,9.891-18.975,31.49-26.242,42.996c-7.065,11.506-23.415,33.71-24.828,54.501
	c-1.211,20.792,15.745,45.418,18.368,54.502c2.423,9.083-3.431,34.719,2.827,53.089c6.056,18.369,23.415,35.325,26.645,37.545
	c3.028,2.221,2.422,0,1.413-1.211c-1.009-1.211-3.027-3.028-7.267-11.909c-4.24-8.681-2.221-18.572,0.606-31.894
	c3.027-13.323,4.441-24.021,3.229-37.344c-1.211-13.323-11.91-35.931-15.139-49.658c-3.229-13.726,5.047-27.25,18.974-50.666
	c13.727-23.617,15.746-43.4,17.562-57.933c1.816-14.534,9.891-35.326,31.691-44.409c12.718-5.248,48.041,2.019,66.412,13.525
	c12.917,8.68,19.377,16.754,21.193,26.04c2.222,10.9-4.44,18.369-8.479,28.865c-4.035,10.699-6.861,23.012-2.22,22.406
	c4.038-0.403,51.475-40.371,62.172-51.876c5.249-5.854,12.313-20.59,2.221-33.71c-8.681-11.506-70.448-16.552-82.356-33.105
	c-10.498-14.736-37.95-13.928-46.023-8.478c-7.47,5.046-23.82,18.773-39.767,24.222c-15.946,5.451-32.297,8.075-53.896,18.975
	c-21.598,11.102-20.589,23.819-23.012,33.105c-2.422,9.285-4.038,34.316-21.598,61.163c-17.764,26.846-7.469,45.216,1.211,72.466
	C117.78,240.191,130.295,253.311,134.535,256.541L134.535,256.541z M251.411,242.814c-0.404,3.028,2.624,0.202,5.046-3.23
	c2.422-3.633,12.111-19.58,27.855-46.629c15.744-27.048,25.03-50.262,24.224-50.868c-1.011-0.605-3.23,1.615-5.653,3.432
	c-2.624,1.816-7.671,6.863-11.908,12.313c-4.24,5.45-7.873,4.844-13.323,6.056c-5.45,1.211-15.341,11.91-20.993,16.553
	c-5.652,4.44-13.322,9.083-20.387,10.092c-7.671,1.211-8.882-2.22-12.112-1.615c-3.229,0.605-3.028,5.854-2.018,9.689
	c1.211,3.633,0.201,5.451-0.404,11.91c-0.605,6.661,4.038,12.918,7.873,16.754c3.834,3.633,2.624,9.488,5.248,11.506
	c2.624,2.019,3.432-11.304,3.432-19.581c0-8.074-1.816-16.148-1.615-17.359c0.404-1.211,6.863-3.028,9.892-5.047
	c3.229-2.019,10.697-7.469,14.331-9.285c3.835-1.817,3.835-0.403,2.827,1.615c-1.009,2.22-3.028,5.45-7.065,8.881
	c-4.239,3.633-14.129,6.257-16.35,6.459c-2.221,0.202-2.019,2.019,0.201,3.835c2.221,1.615,7.671,1.615,12.515,0.403
	c4.845-1.413,4.239,5.047,3.633,11.91C256.053,227.474,251.814,239.787,251.411,242.814L251.411,242.814z M357.99,20.166
	c36.939,11.91,45.015,43.804,32.298,58.337c-7.064,8.074-15.14,12.919-33.711,24.425c-18.57,11.506-25.837,17.562-31.692,22.003
	c-5.854,4.642-9.082,10.899,3.635,7.469c1.212-0.405,79.33-17.159,89.423-22.406c16.955-8.882,21.8-14.938,24.424-26.444
	c2.625-11.505-14.938-30.48-23.213-39.766c-16.553-19.176-56.318-38.958-58.136-39.16c-19.984-6.661-44.408-1.211-64.393-0.202
	c-2.22,0-1.413,3.432-0.202,4.239C314.39,20.974,336.189,15.12,357.99,20.166L357.99,20.166z"/>
<path id="sol" display="none" fill="#A28423" d="M568.858,272.532c0,0.952,0,2.223,0,3.175
	c-22.544,10.16-45.088,20.003-67.632,30.164c-4.128,1.906-10.478,2.224-11.113,7.304c-0.636,5.397,6.033,6.668,9.844,9.209
	c20.004,14.288,40.007,27.94,62.868,43.816c-32.704,4.129-61.599,7.621-92.397,11.432c18.732,25.083,36.196,48.262,55.883,74.3
	c-33.021-6.352-61.281-12.066-91.445-18.099c10.479,30.164,20.004,57.788,30.481,88.27c-28.577-15.876-53.979-29.847-81.285-45.088
	c0,31.753,0,60.646,0,91.445c-21.273-22.86-40.642-43.816-61.916-66.679c-9.207,30.165-17.781,58.105-26.988,88.906
	c-13.654-29.213-26.037-55.884-39.373-84.143c-17.781,25.718-34.292,49.215-53.026,76.204c-4.128-32.704-7.62-61.281-11.113-92.397
	c-25.401,19.367-48.263,36.515-74.299,56.201c5.397-27.308,9.842-51.439,14.605-75.253c0.953-4.445,4.445-9.843,0.317-13.337
	c-4.127-3.492-8.89,1.271-13.335,2.541c-18.098,5.716-35.562,12.384-53.66,18.733c-5.081,1.906-10.161,5.715-16.194,1.906
	c11.748-20.958,23.497-41.595,34.927-62.234c2.223-4.127,7.303-8.257,4.763-12.702c-2.858-5.396-9.526-2.539-14.289-2.539
	c-24.131,1.27-47.945,3.176-75.252,1.904c20.957-19.367,39.69-36.831,58.424-54.295c6.35-5.715,9.525-9.525-2.54-12.701
	c-25.084-6.667-49.533-14.923-76.84-23.179c29.211-13.653,55.883-26.036,84.142-39.373c-26.354-18.416-50.168-34.927-76.204-53.026
	c32.387-4.127,61.281-7.62,92.081-11.43c-18.734-25.084-35.879-47.946-55.566-73.982c29.529,5.715,54.295,9.526,78.745,15.241
	c11.113,2.54,12.066,0.317,8.573-9.208c-8.891-24.448-17.146-48.897-26.989-76.839c28.576,15.876,54.613,30.165,80.967,44.771
	c0-31.435,0-60.647,0-91.446c20.957,22.543,41.278,44.135,62.551,66.997c9.208-30.481,17.781-57.789,26.989-88.906
	c13.971,29.847,26.354,56.201,39.373,84.46c17.78-25.719,34.609-49.533,53.025-75.887c4.128,32.387,7.62,61.28,11.43,92.08
	c24.449-18.416,46.993-35.562,69.537-52.391c1.271,0.636,2.223,1.271,3.493,2.223c-5.397,27.942-10.795,55.566-16.512,85.731
	c29.848-10.479,57.472-19.687,87.953-30.483c-15.876,28.26-29.846,53.979-44.771,80.333c30.8,2.223,59.693-2.857,90.812,0.953
	c-22.861,21.274-44.136,40.959-66.997,62.233C512.34,256.021,540.599,264.276,568.858,272.532z"/>
<g display="none">
	<path display="inline" fill-rule="evenodd" clip-rule="evenodd" fill="#020304" d="M261.117,553.659
		c-52.164,0.445-101.036-12.314-147.214-36.295c-6.065-3.148-8.405-6.881-8.238-13.789c1.739-71.807,25.759-135.43,71.465-190.416
		c51.399-61.836,117.851-98.027,197.351-108.822c67.137-9.115,130.779,3.489,190.57,35.59c5.393,2.896,5.541,6.705,5.422,11.497
		c-1.629,64.487-20.936,123.257-59.166,175.103c-56.061,76.025-132.166,117.316-225.875,126.701
		c-4.023,0.402-8.098,0.352-12.148,0.418C269.228,553.71,265.171,553.659,261.117,553.659z M202.636,365.593
		c-21.39,33.416-33.405,68.787-37.778,106.734c-0.299,2.59,3.237,7.092,6.043,8.348c40.419,18.098,82.729,24.688,126.69,18.936
		c74.697-9.775,133.24-46.059,175.082-108.654c22.881-34.232,35.57-72.205,38.984-113.447
		c-37.059-17.045-75.176-25.237-116.967-23.099c45.346,41.002,51.551,96.491,31.471,140.067
		c-21.779,47.264-64.77,69.453-109.07,68.506C263.391,461.835,216.164,427.19,202.636,365.593z"/>
	<path display="inline" fill-rule="evenodd" clip-rule="evenodd" fill="#020304" d="M175.548,193.373c0-32.929,0-64.248,0-97.263
		c28.588,16.42,55.738,32.015,84.156,48.337c7.849-31.146,15.492-61.477,23.766-94.309c23.828,22.933,46.502,44.754,70.082,67.446
		c15.129-28.214,30.045-56.035,45.951-85.705c17.531,27.944,34.221,54.545,51.652,82.329c18.68-20.452,36.24-39.678,54.713-59.903
		c31.975,41.216,51.424,86.552,60.711,138.645c-112.098-48.545-221.793-46.823-327.051,14.047
		C134.429,267.775,78.061,361.665,63.532,483.149c-40.507-33.354-69.525-73.355-89.604-121.684
		c27.054-5.912,52.765-11.533,79.438-17.361c-15.294-28.777-30.083-56.603-45.682-85.951c33.271,1.14,64.527,2.212,97.347,3.337
		c-7.765-31.347-15.283-61.694-23.417-94.53C113.206,175.844,143.418,184.338,175.548,193.373z"/>
</g>
</svg>
