<?xml version="1.0" encoding="utf-8"?>
<!-- Generator: Adobe Illustrator 16.0.0, SVG Export Plug-In . SVG Version: 6.00 Build 0)  -->
<!DOCTYPE svg PUBLIC "-//W3C//DTD SVG 1.1//EN" "http://www.w3.org/Graphics/SVG/1.1/DTD/svg11.dtd">
<svg version="1.1" id="Capa_1" xmlns="http://www.w3.org/2000/svg" xmlns:xlink="http://www.w3.org/1999/xlink" x="0px" y="0px"
	 width="547.131px" height="588.882px" viewBox="0 0 547.131 588.882" enable-background="new 0 0 547.131 588.882"
	 xml:space="preserve">
<path id="sol" fill="#A28423" d="M568.858,272.532c0,0.952,0,2.223,0,3.175c-22.544,10.16-45.088,20.003-67.632,30.164
	c-4.128,1.906-10.478,2.224-11.113,7.304c-0.636,5.397,6.033,6.668,9.844,9.209c20.004,14.288,40.007,27.94,62.868,43.816
	c-32.704,4.129-61.599,7.621-92.397,11.432c18.732,25.083,36.196,48.262,55.883,74.3c-33.021-6.352-61.281-12.066-91.445-18.099
	c10.479,30.164,20.004,57.788,30.481,88.27c-28.577-15.876-53.979-29.847-81.285-45.088c0,31.753,0,60.646,0,91.445
	c-21.273-22.86-40.642-43.816-61.916-66.679c-9.207,30.165-17.781,58.105-26.988,88.906c-13.654-29.213-26.037-55.884-39.373-84.143
	c-17.781,25.718-34.292,49.215-53.026,76.204c-4.128-32.704-7.62-61.281-11.113-92.397c-25.401,19.367-48.263,36.515-74.299,56.201
	c5.397-27.308,9.842-51.439,14.605-75.253c0.953-4.445,4.445-9.843,0.317-13.337c-4.127-3.492-8.89,1.271-13.335,2.541
	c-18.098,5.716-35.562,12.384-53.66,18.733c-5.081,1.906-10.161,5.715-16.194,1.906c11.748-20.958,23.497-41.595,34.927-62.234
	c2.223-4.127,7.303-8.257,4.763-12.702c-2.858-5.396-9.526-2.539-14.289-2.539c-24.131,1.27-47.945,3.176-75.252,1.904
	c20.957-19.367,39.69-36.831,58.424-54.295c6.35-5.715,9.525-9.525-2.54-12.701c-25.084-6.667-49.533-14.923-76.84-23.179
	c29.211-13.653,55.883-26.036,84.142-39.373c-26.354-18.416-50.168-34.927-76.204-53.026c32.387-4.127,61.281-7.62,92.081-11.43
	c-18.734-25.084-35.879-47.946-55.566-73.982c29.529,5.715,54.295,9.526,78.745,15.241c11.113,2.54,12.066,0.317,8.573-9.208
	c-8.891-24.448-17.146-48.897-26.989-76.839c28.576,15.876,54.613,30.165,80.967,44.771c0-31.435,0-60.647,0-91.446
	c20.957,22.543,41.278,44.135,62.551,66.997c9.208-30.481,17.781-57.789,26.989-88.906c13.971,29.847,26.354,56.201,39.373,84.46
	c17.78-25.719,34.609-49.533,53.025-75.887c4.128,32.387,7.62,61.28,11.43,92.08c24.449-18.416,46.993-35.562,69.537-52.391
	c1.271,0.636,2.223,1.271,3.493,2.223c-5.397,27.942-10.795,55.566-16.512,85.731c29.848-10.479,57.472-19.687,87.953-30.483
	c-15.876,28.26-29.846,53.979-44.771,80.333c30.8,2.223,59.693-2.857,90.812,0.953c-22.861,21.274-44.136,40.959-66.997,62.233
	C512.34,256.021,540.599,264.276,568.858,272.532z"/>
</svg>
