<?xml version="1.0" encoding="utf-8"?>
<!-- Generator: Adobe Illustrator 19.0.0, SVG Export Plug-In . SVG Version: 6.00 Build 0)  -->
<svg version="1.1" id="Capa_1" xmlns="http://www.w3.org/2000/svg" xmlns:xlink="http://www.w3.org/1999/xlink" x="0px" y="0px"
	 viewBox="0 0 187 187" style="enable-background:new 0 0 187 187;" xml:space="preserve">
<style type="text/css">
	.st0{fill:#A28424;}
	.st1{fill:#FFFFFE;}
</style>
<g id="XMLID_1_">
	<g id="XMLID_8_">
		<path id="XMLID_10_" class="st0" d="M188,87.1c0,0.3,0,0.7,0,1c-7.1,3.2-14.2,6.3-21.3,9.5c-1.3,0.6-3.3,0.7-3.5,2.3
			c-0.2,1.7,1.9,2.1,3.1,2.9c6.3,4.5,12.6,8.8,19.8,13.8c-10.3,1.3-19.4,2.4-29.1,3.6c5.9,7.9,11.4,15.2,17.6,23.4
			c-10.4-2-19.3-3.8-28.8-5.7c3.3,9.5,6.3,18.2,9.6,27.8c-9-5-17-9.4-25.6-14.2c0,10,0,19.1,0,28.8c-6.7-7.2-12.8-13.8-19.5-21
			c-2.9,9.5-5.6,18.3-8.5,28c-4.3-9.2-8.2-17.6-12.4-26.5c-5.6,8.1-10.8,15.5-16.7,24c-1.3-10.3-2.4-19.3-3.5-29.1
			c-8,6.1-15.2,11.5-23.4,17.7c1.7-8.6,3.1-16.2,4.6-23.7c0.3-1.4,1.4-3.1,0.1-4.2c-1.3-1.1-2.8,0.4-4.2,0.8
			c-5.7,1.8-11.2,3.9-16.9,5.9c-1.6,0.6-3.2,1.8-5.1,0.6c3.7-6.6,7.4-13.1,11-19.6c0.7-1.3,2.3-2.6,1.5-4c-0.9-1.7-3-0.8-4.5-0.8
			c-7.6,0.4-15.1,1-23.7,0.6c6.6-6.1,12.5-11.6,18.4-17.1c2-1.8,3-3-0.8-4c-7.9-2.1-15.6-4.7-24.2-7.3c9.2-4.3,17.6-8.2,26.5-12.4
			c-8.3-5.8-15.8-11-24-16.7c10.2-1.3,19.3-2.4,29-3.6C27.6,60,22.2,52.8,16,44.6c9.3,1.8,17.1,3,24.8,4.8c3.5,0.8,3.8,0.1,2.7-2.9
			c-2.8-7.7-5.4-15.4-8.5-24.2c9,5,17.2,9.5,25.5,14.1c0-9.9,0-19.1,0-28.8c6.6,7.1,13,13.9,19.7,21.1c2.9-9.6,5.6-18.2,8.5-28
			c4.4,9.4,8.3,17.7,12.4,26.6c5.6-8.1,10.9-15.6,16.7-23.9c1.3,10.2,2.4,19.3,3.6,29c7.7-5.8,14.8-11.2,21.9-16.5
			c0.4,0.2,0.7,0.4,1.1,0.7c-1.7,8.8-3.4,17.5-5.2,27c9.4-3.3,18.1-6.2,27.7-9.6c-5,8.9-9.4,17-14.1,25.3c9.7,0.7,18.8-0.9,28.6,0.3
			c-7.2,6.7-13.9,12.9-21.1,19.6C170.2,81.9,179.1,84.5,188,87.1z"/>
		<path id="XMLID_9_" class="st1" d="M188,87.1c-8.9-2.6-17.8-5.2-27.6-8c7.2-6.7,13.8-12.9,21.1-19.6c-9.8-1.2-19,0.4-28.6-0.3
			c4.6-8.4,9.1-16.4,14.1-25.3c-9.6,3.3-18.3,6.3-27.7,9.6c1.8-9.4,3.5-18.2,5.2-27c-0.4-0.2-0.7-0.4-1.1-0.7
			c-7.1,5.3-14.2,10.7-21.9,16.5c-1.2-9.7-2.4-18.8-3.6-29c-5.8,8.3-11.1,15.8-16.7,23.9c-4.1-8.8-8-17.2-12.4-26.6
			c-3,9.7-5.6,18.4-8.5,28c-6.8-7.2-13.1-14-19.7-21.1c0,9.7,0,18.9,0,28.8C52.2,31.8,44,27.3,35,22.3c3.1,8.8,5.7,16.5,8.5,24.2
			c1.1,3,0.9,3.7-2.7,2.9c-7.7-1.8-15.5-3.1-24.8-4.8c6.2,8.3,11.6,15.4,17.5,23.3c-9.8,1.2-18.9,2.3-29,3.6
			c8.2,5.7,15.7,11,24,16.7c-8.9,4.2-17.4,8.1-26.5,12.4c8.6,2.6,16.4,5.2,24.2,7.3c3.8,1,2.8,2.1,0.8,4c-5.9,5.5-11.8,11-18.4,17.1
			c8.6,0.4,16.1-0.2,23.7-0.6c1.5-0.1,3.6-0.9,4.5,0.8c0.8,1.4-0.8,2.7-1.5,4c-3.6,6.5-7.3,13-11,19.6c2,1.2,3.5,0,5.1-0.6
			c5.6-1.9,11.2-4,16.9-5.9c1.3-0.4,2.9-1.9,4.2-0.8c1.3,1.1,0.2,2.8-0.1,4.2c-1.5,7.5-2.9,15.1-4.6,23.7
			c8.1-6.2,15.4-11.6,23.4-17.7c1.2,9.8,2.3,18.8,3.5,29.1c5.9-8.5,11.1-15.9,16.7-24c4.2,8.9,8.1,17.3,12.4,26.5
			c2.9-9.6,5.6-18.4,8.5-28c6.7,7.2,12.8,13.8,19.5,21c0-9.7,0-18.7,0-28.8c8.6,4.8,16.6,9.2,25.6,14.2c-3.3-9.6-6.3-18.3-9.6-27.8
			c9.5,1.9,18.4,3.6,28.8,5.7c-6.2-8.3-11.7-15.5-17.6-23.4c9.7-1.2,18.8-2.3,29.1-3.6c-7.2-5-13.5-9.4-19.8-13.8
			c-1.1-0.8-3.3-1.2-3.1-2.9c0.2-1.6,2.2-1.7,3.5-2.3c7.1-3.2,14.2-6.4,21.3-9.5c0,32.2-0.1,64.3,0.1,96.5c0,3-0.6,3.6-3.6,3.6
			c-60-0.1-120-0.1-180,0c-3,0-3.6-0.6-3.6-3.6C1,124.3,1,63.9,0.9,3.6c0-3,0.6-3.6,3.6-3.6c60,0.1,120,0.1,180,0
			c3,0,3.6,0.6,3.6,3.6C187.9,31.4,188,59.3,188,87.1z"/>
	</g>
</g>
</svg>
