<?xml version="1.0" encoding="utf-8"?>
<!-- Generator: Adobe Illustrator 16.0.0, SVG Export Plug-In . SVG Version: 6.00 Build 0)  -->
<!DOCTYPE svg PUBLIC "-//W3C//DTD SVG 1.1//EN" "http://www.w3.org/Graphics/SVG/1.1/DTD/svg11.dtd">
<svg version="1.1" id="Capa_1" xmlns="http://www.w3.org/2000/svg" xmlns:xlink="http://www.w3.org/1999/xlink" x="0px" y="0px"
	 width="430.117px" height="430.117px" viewBox="0 0 430.117 430.117" enable-background="new 0 0 430.117 430.117"
	 xml:space="preserve">
	<g>
		<path fill="#030104" d="M379.406,95.261c19.25-11.817,31.996-27.946,38.239-48.458c-18.727,9.935-37.381,16.749-56.012,20.513
			c-16.748-18.011-37.951-27.16-63.371-27.16c-24.849,0-45.838,8.72-62.966,25.683c-17.035,17.082-25.636,37.833-25.636,62.062
			c0,7.361,0.93,13.938,2.788,19.512C139.166,144.91,78.51,114.511,30.719,55.999c-8.1,14.319-12.15,28.899-12.15,43.979
			c0,30.995,13.079,55.558,39.19,73.592c-14.89-1.262-28.017-5.026-39.19-11.196c0,22.132,6.503,40.62,19.536,56.891
			c13.079,16.106,29.875,26.373,50.388,30.758c-7.434,1.905-15.272,2.811-23.324,2.811c-7.434,0-12.699-0.619-15.819-1.979
			c5.479,18.036,15.819,32.664,30.756,43.861c14.89,11.245,32.02,17.178,51.269,17.702C99.642,337.314,63.358,349.63,22.31,349.63
			c-10.054,0-17.178-0.143-21.49-0.906c40.429,26.254,85.433,39.287,135.225,39.287c50.959,0,95.987-12.913,135.178-38.737
			c39.19-25.684,68.112-57.369,86.695-94.678c18.678-37.262,27.922-76.046,27.922-116.547v-11.15
			c18.059-13.579,32.662-28.874,43.836-45.766C413.476,88.114,396.728,92.854,379.406,95.261z"/>
	</g>

</svg>
